<mxfile host="app.diagrams.net" agent="Mozilla/5.0 (Windows NT 10.0; Win64; x64) AppleWebKit/537.36 (KHTML, like Gecko) Chrome/138.0.0.0 YaBrowser/25.8.0.0 Safari/537.36" version="28.0.7">
  <diagram name="Azhur Katering Architecture" id="architecture">
    <mxGraphModel dx="226" dy="138" grid="1" gridSize="10" guides="1" tooltips="1" connect="1" arrows="1" fold="1" page="1" pageScale="1" pageWidth="1400" pageHeight="1000" math="0" shadow="0">
      <root>
        <mxCell id="0" />
        <mxCell id="1" parent="0" />
        <mxCell id="rMl54wu_ovjfyR4ZgFAf-6" style="edgeStyle=orthogonalEdgeStyle;rounded=0;orthogonalLoop=1;jettySize=auto;html=1;exitX=0.9;exitY=0.5;exitDx=0;exitDy=0;exitPerimeter=0;" edge="1" parent="1" source="rMl54wu_ovjfyR4ZgFAf-2">
          <mxGeometry relative="1" as="geometry">
            <mxPoint x="320" y="490" as="targetPoint" />
            <Array as="points" />
          </mxGeometry>
        </mxCell>
        <mxCell id="rMl54wu_ovjfyR4ZgFAf-2" value="&lt;div&gt;&lt;br&gt;&lt;/div&gt;&lt;div&gt;&lt;br&gt;&lt;/div&gt;client" style="shape=actor;whiteSpace=wrap;html=1;" vertex="1" parent="1">
          <mxGeometry x="120" y="460" width="40" height="60" as="geometry" />
        </mxCell>
        <mxCell id="rMl54wu_ovjfyR4ZgFAf-29" style="edgeStyle=orthogonalEdgeStyle;rounded=0;orthogonalLoop=1;jettySize=auto;html=1;" edge="1" parent="1">
          <mxGeometry relative="1" as="geometry">
            <mxPoint x="320" y="520" as="targetPoint" />
            <mxPoint x="400" y="255" as="sourcePoint" />
            <Array as="points">
              <mxPoint x="400" y="255" />
              <mxPoint x="400" y="520" />
            </Array>
          </mxGeometry>
        </mxCell>
        <mxCell id="rMl54wu_ovjfyR4ZgFAf-34" style="edgeStyle=orthogonalEdgeStyle;rounded=0;orthogonalLoop=1;jettySize=auto;html=1;exitX=1;exitY=0.5;exitDx=0;exitDy=0;entryX=0;entryY=0.5;entryDx=0;entryDy=0;" edge="1" parent="1" source="rMl54wu_ovjfyR4ZgFAf-5" target="rMl54wu_ovjfyR4ZgFAf-28">
          <mxGeometry relative="1" as="geometry" />
        </mxCell>
        <mxCell id="rMl54wu_ovjfyR4ZgFAf-38" style="edgeStyle=orthogonalEdgeStyle;rounded=0;orthogonalLoop=1;jettySize=auto;html=1;exitX=1;exitY=0.5;exitDx=0;exitDy=0;entryX=0;entryY=0.5;entryDx=0;entryDy=0;" edge="1" parent="1" source="rMl54wu_ovjfyR4ZgFAf-5" target="rMl54wu_ovjfyR4ZgFAf-37">
          <mxGeometry relative="1" as="geometry">
            <Array as="points">
              <mxPoint x="630" y="240" />
              <mxPoint x="630" y="655" />
            </Array>
          </mxGeometry>
        </mxCell>
        <mxCell id="rMl54wu_ovjfyR4ZgFAf-5" value="auth-module" style="rounded=1;whiteSpace=wrap;html=1;" vertex="1" parent="1">
          <mxGeometry x="480" y="210" width="120" height="60" as="geometry" />
        </mxCell>
        <mxCell id="rMl54wu_ovjfyR4ZgFAf-21" value="" style="endArrow=none;html=1;rounded=0;" edge="1" parent="1">
          <mxGeometry width="50" height="50" relative="1" as="geometry">
            <mxPoint x="320" y="760" as="sourcePoint" />
            <mxPoint x="320" y="160" as="targetPoint" />
          </mxGeometry>
        </mxCell>
        <mxCell id="rMl54wu_ovjfyR4ZgFAf-22" value="" style="endArrow=none;html=1;rounded=0;" edge="1" parent="1">
          <mxGeometry width="50" height="50" relative="1" as="geometry">
            <mxPoint x="320" y="160" as="sourcePoint" />
            <mxPoint x="960" y="160" as="targetPoint" />
          </mxGeometry>
        </mxCell>
        <mxCell id="rMl54wu_ovjfyR4ZgFAf-23" value="" style="endArrow=none;html=1;rounded=0;" edge="1" parent="1">
          <mxGeometry width="50" height="50" relative="1" as="geometry">
            <mxPoint x="960" y="760.761951264881" as="sourcePoint" />
            <mxPoint x="960" y="160" as="targetPoint" />
          </mxGeometry>
        </mxCell>
        <mxCell id="rMl54wu_ovjfyR4ZgFAf-24" value="" style="endArrow=none;html=1;rounded=0;" edge="1" parent="1">
          <mxGeometry width="50" height="50" relative="1" as="geometry">
            <mxPoint x="320" y="760" as="sourcePoint" />
            <mxPoint x="960" y="760" as="targetPoint" />
          </mxGeometry>
        </mxCell>
        <mxCell id="rMl54wu_ovjfyR4ZgFAf-25" value="" style="endArrow=classic;html=1;rounded=0;entryX=-0.003;entryY=0.183;entryDx=0;entryDy=0;entryPerimeter=0;" edge="1" parent="1" target="rMl54wu_ovjfyR4ZgFAf-5">
          <mxGeometry width="50" height="50" relative="1" as="geometry">
            <mxPoint x="320" y="480" as="sourcePoint" />
            <mxPoint x="490" y="220" as="targetPoint" />
            <Array as="points">
              <mxPoint x="360" y="480" />
              <mxPoint x="360" y="220" />
            </Array>
          </mxGeometry>
        </mxCell>
        <mxCell id="rMl54wu_ovjfyR4ZgFAf-26" value="&lt;pre class=&quot;code-fence&quot; style=&quot;box-sizing: border-box; margin-top: 16px; margin-bottom: 16px; font-variant-numeric: normal; font-variant-east-asian: normal; font-variant-alternates: normal; font-size-adjust: none; font-kerning: auto; font-optical-sizing: auto; font-feature-settings: normal; font-variation-settings: normal; font-variant-position: normal; font-variant-emoji: normal; font-stretch: normal; line-height: 1.45; font-family: &amp;quot;JetBrains Mono&amp;quot;, Consolas, &amp;quot;Liberation Mono&amp;quot;, Menlo, Courier, monospace; padding: 16px; overflow: auto; border-radius: 3px; background-color: rgba(212, 222, 231, 0.098); text-align: start;&quot;&gt;&lt;code style=&quot;box-sizing: border-box; font-variant-numeric: normal; font-variant-east-asian: normal; font-variant-alternates: normal; font-variant-position: normal; font-variant-emoji: normal; font-kerning: auto; font-optical-sizing: auto; font-feature-settings: normal; font-variation-settings: normal; font-stretch: normal; line-height: inherit; font-family: &amp;quot;JetBrains Mono&amp;quot;, Consolas, &amp;quot;Liberation Mono&amp;quot;, Menlo, Courier, monospace; padding: 0px; margin: 0px; border-radius: 3px; background: transparent; word-break: normal; border: 0px; display: inline; max-width: initial; overflow: initial; overflow-wrap: normal;&quot;&gt;&lt;font style=&quot;color: rgb(0, 0, 0);&quot;&gt;&lt;span style=&quot;box-sizing: border-box;&quot;&gt;POST   /api/v1/auth/register&lt;br&gt;&lt;/span&gt;&lt;span style=&quot;box-sizing: border-box;&quot;&gt;POST   /api/v1/auth/login&lt;br&gt;&lt;/span&gt;&lt;span style=&quot;box-sizing: border-box;&quot;&gt;POST   /api/v1/auth/refresh&lt;br&gt;&lt;/span&gt;&lt;span style=&quot;box-sizing: border-box;&quot;&gt;POST   /api/v1/auth/logout&lt;br&gt;&lt;/span&gt;&lt;span style=&quot;box-sizing: border-box;&quot;&gt;POST   /api/v1/auth/change-password&lt;br&gt;&lt;/span&gt;&lt;span style=&quot;box-sizing: border-box;&quot;&gt;POST   /api/v1/auth/send-verification&lt;br&gt;&lt;/span&gt;&lt;span style=&quot;box-sizing: border-box;&quot;&gt;POST   /api/v1/auth/verify-email&lt;br&gt;&lt;/span&gt;&lt;span style=&quot;box-sizing: border-box;&quot;&gt;GET    /api/v1/auth/me  &lt;/span&gt;&lt;/font&gt;&lt;/code&gt;&lt;/pre&gt;" style="text;html=1;align=center;verticalAlign=middle;whiteSpace=wrap;rounded=0;fontSize=5;" vertex="1" parent="1">
          <mxGeometry x="485" y="270" width="110" height="60" as="geometry" />
        </mxCell>
        <mxCell id="rMl54wu_ovjfyR4ZgFAf-28" value="Yandex SMTP" style="ellipse;whiteSpace=wrap;html=1;aspect=fixed;" vertex="1" parent="1">
          <mxGeometry x="795" y="199.9956097560976" width="80" height="80" as="geometry" />
        </mxCell>
        <mxCell id="rMl54wu_ovjfyR4ZgFAf-30" value="" style="endArrow=classic;html=1;rounded=0;entryX=1.012;entryY=0.841;entryDx=0;entryDy=0;entryPerimeter=0;" edge="1" parent="1" target="rMl54wu_ovjfyR4ZgFAf-2">
          <mxGeometry width="50" height="50" relative="1" as="geometry">
            <mxPoint x="320" y="510" as="sourcePoint" />
            <mxPoint x="250" y="510" as="targetPoint" />
          </mxGeometry>
        </mxCell>
        <mxCell id="rMl54wu_ovjfyR4ZgFAf-58" style="edgeStyle=orthogonalEdgeStyle;rounded=0;orthogonalLoop=1;jettySize=auto;html=1;exitX=1;exitY=0.5;exitDx=0;exitDy=0;" edge="1" parent="1" source="rMl54wu_ovjfyR4ZgFAf-32">
          <mxGeometry relative="1" as="geometry">
            <mxPoint x="630" y="390" as="targetPoint" />
          </mxGeometry>
        </mxCell>
        <mxCell id="rMl54wu_ovjfyR4ZgFAf-32" value="menu-module" style="rounded=1;whiteSpace=wrap;html=1;" vertex="1" parent="1">
          <mxGeometry x="480" y="360" width="120" height="60" as="geometry" />
        </mxCell>
        <mxCell id="rMl54wu_ovjfyR4ZgFAf-48" style="edgeStyle=orthogonalEdgeStyle;rounded=0;orthogonalLoop=1;jettySize=auto;html=1;exitX=0;exitY=0.75;exitDx=0;exitDy=0;" edge="1" parent="1" source="rMl54wu_ovjfyR4ZgFAf-33">
          <mxGeometry relative="1" as="geometry">
            <mxPoint x="400" y="600" as="targetPoint" />
            <Array as="points">
              <mxPoint x="480" y="600" />
            </Array>
          </mxGeometry>
        </mxCell>
        <mxCell id="rMl54wu_ovjfyR4ZgFAf-63" style="edgeStyle=orthogonalEdgeStyle;rounded=0;orthogonalLoop=1;jettySize=auto;html=1;exitX=1;exitY=0.5;exitDx=0;exitDy=0;" edge="1" parent="1" source="rMl54wu_ovjfyR4ZgFAf-33">
          <mxGeometry relative="1" as="geometry">
            <mxPoint x="630" y="580.0625" as="targetPoint" />
          </mxGeometry>
        </mxCell>
        <mxCell id="rMl54wu_ovjfyR4ZgFAf-33" value="cart-module" style="rounded=1;whiteSpace=wrap;html=1;" vertex="1" parent="1">
          <mxGeometry x="480" y="550" width="120" height="60" as="geometry" />
        </mxCell>
        <mxCell id="rMl54wu_ovjfyR4ZgFAf-37" value="&lt;font style=&quot;font-size: 11px;&quot;&gt;PostgreSql&lt;/font&gt;" style="shape=datastore;whiteSpace=wrap;html=1;" vertex="1" parent="1">
          <mxGeometry x="760" y="570" width="150" height="170" as="geometry" />
        </mxCell>
        <mxCell id="rMl54wu_ovjfyR4ZgFAf-42" value="&lt;pre style=&quot;font-variant-numeric: normal; font-variant-east-asian: normal; font-variant-alternates: normal; font-size-adjust: none; font-kerning: auto; font-optical-sizing: auto; font-feature-settings: normal; font-variation-settings: normal; font-variant-position: normal; font-variant-emoji: normal; font-stretch: normal; font-size: 5px; line-height: 1.45; font-family: &amp;quot;JetBrains Mono&amp;quot;, Consolas, &amp;quot;Liberation Mono&amp;quot;, Menlo, Courier, monospace; box-sizing: border-box; margin-top: 16px; margin-bottom: 16px; padding: 16px; overflow: auto; border-radius: 3px; background-color: rgba(212, 222, 231, 0.098); text-align: start;&quot; class=&quot;code-fence&quot;&gt;&lt;code style=&quot;box-sizing: border-box; font-variant-numeric: normal; font-variant-east-asian: normal; font-variant-alternates: normal; font-variant-position: normal; font-variant-emoji: normal; font-kerning: auto; font-optical-sizing: auto; font-feature-settings: normal; font-variation-settings: normal; font-stretch: normal; line-height: inherit; font-family: &amp;quot;JetBrains Mono&amp;quot;, Consolas, &amp;quot;Liberation Mono&amp;quot;, Menlo, Courier, monospace; padding: 0px; margin: 0px; border-radius: 3px; background: transparent; word-break: normal; border: 0px; display: inline; max-width: initial; overflow: initial; overflow-wrap: normal;&quot;&gt;&lt;span style=&quot;box-sizing: border-box;&quot;&gt;GET    /api/v1/categories&lt;br&gt;&lt;/span&gt;&lt;span style=&quot;box-sizing: border-box;&quot;&gt;GET    /api/v1/categories/{id}&lt;br&gt;&lt;/span&gt;&lt;span style=&quot;box-sizing: border-box;&quot;&gt;POST   /api/v1/categories&lt;br&gt;&lt;/span&gt;&lt;span style=&quot;box-sizing: border-box;&quot;&gt;PUT    /api/v1/categories/{id}&lt;br&gt;&lt;/span&gt;&lt;span style=&quot;box-sizing: border-box;&quot;&gt;DELETE /api/v1/categories/{id}&lt;br&gt;&lt;/span&gt;&lt;span style=&quot;box-sizing: border-box;&quot;&gt;&lt;br&gt;&lt;/span&gt;&lt;span style=&quot;box-sizing: border-box;&quot;&gt;GET    /api/v1/dishes&lt;br&gt;&lt;/span&gt;&lt;span style=&quot;box-sizing: border-box;&quot;&gt;GET    /api/v1/dishes/{id}&lt;br&gt;&lt;/span&gt;&lt;span style=&quot;box-sizing: border-box;&quot;&gt;POST   /api/v1/dishes&lt;br&gt;&lt;/span&gt;&lt;span style=&quot;box-sizing: border-box;&quot;&gt;PUT    /api/v1/dishes/{id}&lt;br&gt;&lt;/span&gt;&lt;span style=&quot;box-sizing: border-box;&quot;&gt;DELETE /api/v1/dishes/{id}&lt;br&gt;&lt;/span&gt;&lt;span style=&quot;box-sizing: border-box;&quot;&gt;POST   /api/v1/dishes/{id}/images&lt;br&gt;&lt;/span&gt;&lt;span style=&quot;box-sizing: border-box;&quot;&gt;DELETE /api/v1/dishes/{id}/images/{imageId}&lt;/span&gt;&lt;/code&gt;&lt;/pre&gt;" style="text;html=1;align=center;verticalAlign=middle;whiteSpace=wrap;rounded=0;" vertex="1" parent="1">
          <mxGeometry x="485" y="420" width="120" height="100" as="geometry" />
        </mxCell>
        <mxCell id="rMl54wu_ovjfyR4ZgFAf-43" value="" style="endArrow=classic;html=1;rounded=0;entryX=0;entryY=0.25;entryDx=0;entryDy=0;" edge="1" parent="1" target="rMl54wu_ovjfyR4ZgFAf-32">
          <mxGeometry width="50" height="50" relative="1" as="geometry">
            <mxPoint x="360" y="375" as="sourcePoint" />
            <mxPoint x="450" y="370" as="targetPoint" />
          </mxGeometry>
        </mxCell>
        <mxCell id="rMl54wu_ovjfyR4ZgFAf-44" value="" style="endArrow=classic;html=1;rounded=0;exitX=0;exitY=0.75;exitDx=0;exitDy=0;" edge="1" parent="1" source="rMl54wu_ovjfyR4ZgFAf-32">
          <mxGeometry width="50" height="50" relative="1" as="geometry">
            <mxPoint x="470" y="400" as="sourcePoint" />
            <mxPoint x="400" y="405" as="targetPoint" />
          </mxGeometry>
        </mxCell>
        <mxCell id="rMl54wu_ovjfyR4ZgFAf-45" value="" style="endArrow=classic;html=1;rounded=0;entryX=0;entryY=0.25;entryDx=0;entryDy=0;" edge="1" parent="1" target="rMl54wu_ovjfyR4ZgFAf-33">
          <mxGeometry width="50" height="50" relative="1" as="geometry">
            <mxPoint x="360" y="480" as="sourcePoint" />
            <mxPoint x="510" y="520" as="targetPoint" />
            <Array as="points">
              <mxPoint x="360" y="565" />
            </Array>
          </mxGeometry>
        </mxCell>
        <mxCell id="rMl54wu_ovjfyR4ZgFAf-47" value="" style="endArrow=none;html=1;rounded=0;" edge="1" parent="1">
          <mxGeometry width="50" height="50" relative="1" as="geometry">
            <mxPoint x="400" y="520" as="sourcePoint" />
            <mxPoint x="400" y="600" as="targetPoint" />
          </mxGeometry>
        </mxCell>
        <mxCell id="rMl54wu_ovjfyR4ZgFAf-55" style="edgeStyle=orthogonalEdgeStyle;rounded=0;orthogonalLoop=1;jettySize=auto;html=1;exitX=0;exitY=0;exitDx=0;exitDy=52.5;exitPerimeter=0;entryX=1;entryY=0.75;entryDx=0;entryDy=0;" edge="1" parent="1" source="rMl54wu_ovjfyR4ZgFAf-53" target="rMl54wu_ovjfyR4ZgFAf-32">
          <mxGeometry relative="1" as="geometry">
            <mxPoint x="630" y="400" as="targetPoint" />
            <Array as="points">
              <mxPoint x="760" y="405" />
            </Array>
          </mxGeometry>
        </mxCell>
        <mxCell id="rMl54wu_ovjfyR4ZgFAf-53" value="AWS S3" style="shape=cylinder3;whiteSpace=wrap;html=1;boundedLbl=1;backgroundOutline=1;size=15;" vertex="1" parent="1">
          <mxGeometry x="760" y="330" width="150" height="130" as="geometry" />
        </mxCell>
        <mxCell id="rMl54wu_ovjfyR4ZgFAf-54" style="edgeStyle=orthogonalEdgeStyle;rounded=0;orthogonalLoop=1;jettySize=auto;html=1;exitX=1;exitY=0.25;exitDx=0;exitDy=0;entryX=0.003;entryY=0.348;entryDx=0;entryDy=0;entryPerimeter=0;" edge="1" parent="1" source="rMl54wu_ovjfyR4ZgFAf-32" target="rMl54wu_ovjfyR4ZgFAf-53">
          <mxGeometry relative="1" as="geometry">
            <Array as="points">
              <mxPoint x="760" y="375" />
            </Array>
          </mxGeometry>
        </mxCell>
        <mxCell id="rMl54wu_ovjfyR4ZgFAf-56" value="img" style="text;html=1;align=center;verticalAlign=middle;resizable=0;points=[];autosize=1;strokeColor=none;fillColor=none;" vertex="1" parent="1">
          <mxGeometry x="660" y="350" width="40" height="30" as="geometry" />
        </mxCell>
        <mxCell id="rMl54wu_ovjfyR4ZgFAf-57" value="url" style="text;html=1;align=center;verticalAlign=middle;resizable=0;points=[];autosize=1;strokeColor=none;fillColor=none;" vertex="1" parent="1">
          <mxGeometry x="660" y="400" width="40" height="30" as="geometry" />
        </mxCell>
        <mxCell id="rMl54wu_ovjfyR4ZgFAf-59" value="" style="endArrow=classic;html=1;rounded=0;exitX=0;exitY=0.75;exitDx=0;exitDy=0;" edge="1" parent="1" source="rMl54wu_ovjfyR4ZgFAf-5">
          <mxGeometry width="50" height="50" relative="1" as="geometry">
            <mxPoint x="420" y="320" as="sourcePoint" />
            <mxPoint x="400" y="255" as="targetPoint" />
          </mxGeometry>
        </mxCell>
        <mxCell id="rMl54wu_ovjfyR4ZgFAf-61" value="&lt;pre style=&quot;box-sizing: border-box; margin-top: 16px; margin-bottom: 16px; font-style: normal; font-variant: normal; font-size-adjust: none; font-kerning: auto; font-optical-sizing: auto; font-feature-settings: normal; font-variation-settings: normal; font-weight: 400; font-stretch: normal; line-height: 1.45; font-family: &amp;quot;JetBrains Mono&amp;quot;, Consolas, &amp;quot;Liberation Mono&amp;quot;, Menlo, Courier, monospace; padding: 16px; overflow: auto; border-radius: 3px; background-color: rgba(212, 222, 231, 0.098); letter-spacing: normal; orphans: 2; text-align: start; text-indent: 0px; text-transform: none; widows: 2; word-spacing: 0px; -webkit-text-stroke-width: 0px; text-decoration-thickness: initial; text-decoration-style: initial; text-decoration-color: initial;&quot; class=&quot;code-fence&quot;&gt;&lt;br&gt;&lt;/pre&gt;" style="text;whiteSpace=wrap;html=1;fontColor=#000000;fontSize=6;" vertex="1" parent="1">
          <mxGeometry x="500" y="610" width="90" height="90" as="geometry" />
        </mxCell>
        <mxCell id="rMl54wu_ovjfyR4ZgFAf-62" value="&lt;pre style=&quot;font-variant-numeric: normal; font-variant-east-asian: normal; font-variant-alternates: normal; font-size-adjust: none; font-kerning: auto; font-optical-sizing: auto; font-feature-settings: normal; font-variation-settings: normal; font-variant-position: normal; font-variant-emoji: normal; font-stretch: normal; font-size: 6px; line-height: 1.45; font-family: &amp;quot;JetBrains Mono&amp;quot;, Consolas, &amp;quot;Liberation Mono&amp;quot;, Menlo, Courier, monospace; box-sizing: border-box; margin-top: 16px; margin-bottom: 16px; padding: 16px; overflow: auto; border-radius: 3px; background-color: rgba(212, 222, 231, 0.098); text-align: start;&quot; class=&quot;code-fence&quot;&gt;&lt;code style=&quot;box-sizing: border-box; font-variant-numeric: normal; font-variant-east-asian: normal; font-variant-alternates: normal; font-variant-position: normal; font-variant-emoji: normal; font-kerning: auto; font-optical-sizing: auto; font-feature-settings: normal; font-variation-settings: normal; font-stretch: normal; line-height: inherit; font-family: &amp;quot;JetBrains Mono&amp;quot;, Consolas, &amp;quot;Liberation Mono&amp;quot;, Menlo, Courier, monospace; padding: 0px; margin: 0px; border-radius: 3px; background: transparent; word-break: normal; border: 0px; display: inline; max-width: initial; overflow: initial; overflow-wrap: normal;&quot;&gt;&lt;span style=&quot;box-sizing: border-box; line-height: 5.4px;&quot;&gt;GET    /api/v1/cart&lt;br&gt;&lt;/span&gt;&lt;span style=&quot;box-sizing: border-box;&quot;&gt;POST   /api/v1/cart/items&lt;br&gt;&lt;/span&gt;&lt;span style=&quot;box-sizing: border-box;&quot;&gt;PUT    /api/v1/cart/items/{id}&lt;br&gt;&lt;/span&gt;&lt;span style=&quot;box-sizing: border-box;&quot;&gt;DELETE /api/v1/cart/items/{id}&lt;br&gt;&lt;/span&gt;&lt;span style=&quot;box-sizing: border-box;&quot;&gt;DELETE /api/v1/cart&lt;/span&gt;&lt;/code&gt;&lt;/pre&gt;" style="text;html=1;align=center;verticalAlign=middle;whiteSpace=wrap;rounded=0;" vertex="1" parent="1">
          <mxGeometry x="485" y="610" width="100" height="50" as="geometry" />
        </mxCell>
        <mxCell id="rMl54wu_ovjfyR4ZgFAf-64" value="response" style="text;html=1;align=center;verticalAlign=middle;resizable=0;points=[];autosize=1;strokeColor=none;fillColor=none;fontSize=9;" vertex="1" parent="1">
          <mxGeometry x="410" y="605" width="60" height="20" as="geometry" />
        </mxCell>
        <mxCell id="rMl54wu_ovjfyR4ZgFAf-65" value="response" style="text;html=1;align=center;verticalAlign=middle;resizable=0;points=[];autosize=1;strokeColor=none;fillColor=none;fontSize=9;" vertex="1" parent="1">
          <mxGeometry x="415" y="405" width="60" height="20" as="geometry" />
        </mxCell>
        <mxCell id="rMl54wu_ovjfyR4ZgFAf-66" value="request" style="text;html=1;align=center;verticalAlign=middle;resizable=0;points=[];autosize=1;strokeColor=none;fillColor=none;fontSize=9;" vertex="1" parent="1">
          <mxGeometry x="415" y="355" width="50" height="20" as="geometry" />
        </mxCell>
        <mxCell id="rMl54wu_ovjfyR4ZgFAf-67" value="response" style="text;html=1;align=center;verticalAlign=middle;resizable=0;points=[];autosize=1;strokeColor=none;fillColor=none;fontSize=9;" vertex="1" parent="1">
          <mxGeometry x="410" y="253" width="60" height="20" as="geometry" />
        </mxCell>
        <mxCell id="rMl54wu_ovjfyR4ZgFAf-68" value="request" style="text;html=1;align=center;verticalAlign=middle;resizable=0;points=[];autosize=1;strokeColor=none;fillColor=none;fontSize=9;" vertex="1" parent="1">
          <mxGeometry x="390" y="203" width="50" height="20" as="geometry" />
        </mxCell>
        <mxCell id="rMl54wu_ovjfyR4ZgFAf-70" value="request" style="text;html=1;align=center;verticalAlign=middle;resizable=0;points=[];autosize=1;strokeColor=none;fillColor=none;fontSize=9;" vertex="1" parent="1">
          <mxGeometry x="410" y="543" width="50" height="20" as="geometry" />
        </mxCell>
        <mxCell id="rMl54wu_ovjfyR4ZgFAf-71" value="request" style="text;html=1;align=center;verticalAlign=middle;resizable=0;points=[];autosize=1;strokeColor=none;fillColor=none;fontSize=9;" vertex="1" parent="1">
          <mxGeometry x="210" y="470" width="50" height="20" as="geometry" />
        </mxCell>
        <mxCell id="rMl54wu_ovjfyR4ZgFAf-72" value="response" style="text;html=1;align=center;verticalAlign=middle;resizable=0;points=[];autosize=1;strokeColor=none;fillColor=none;fontSize=9;" vertex="1" parent="1">
          <mxGeometry x="205" y="510" width="60" height="20" as="geometry" />
        </mxCell>
      </root>
    </mxGraphModel>
  </diagram>
</mxfile>
